<svg width="128" height="128" viewBox="0 0 128 128" fill="none" xmlns="http://www.w3.org/2000/svg">
<path d="M89 109C93.4183 109 97 105.418 97 101C97 96.5817 93.4183 93 89 93C84.5817 93 81 96.5817 81 101C81 105.418 84.5817 109 89 109Z" stroke="white" stroke-width="4" stroke-miterlimit="10" stroke-linecap="round" stroke-linejoin="round"/>
<path d="M49 109C53.4183 109 57 105.418 57 101C57 96.5817 53.4183 93 49 93C44.5817 93 41 96.5817 41 101C41 105.418 44.5817 109 49 109Z" stroke="white" stroke-width="4" stroke-miterlimit="10" stroke-linecap="round" stroke-linejoin="round"/>
<path d="M29 33H112.08C114.887 33 116.821 35.8159 115.813 38.4359L99.8766 79.8718C98.6883 82.9614 95.72 85 92.4098 85H45.6081C41.7724 85 38.4764 82.2775 37.7521 78.5108L29 33Z" stroke="white" stroke-width="4" stroke-miterlimit="10" stroke-linecap="round" stroke-linejoin="round"/>
<path d="M28.9455 33.0108L27.4293 25.4308C26.6813 21.6915 23.398 19 19.5847 19H12.3438" stroke="white" stroke-width="4" stroke-miterlimit="10" stroke-linecap="round" stroke-linejoin="round"/>
<path d="M89.9039 45H92.9041" stroke="white" stroke-width="4" stroke-miterlimit="10" stroke-linecap="round" stroke-linejoin="round"/>
<path d="M32 45H80.9042" stroke="white" stroke-width="4" stroke-miterlimit="10" stroke-linecap="round" stroke-linejoin="round"/>
</svg>
